<!DOCTYPE svg PUBLIC "-//W3C//DTD SVG 1.1//EN" "http://www.w3.org/Graphics/SVG/1.1/DTD/svg11.dtd">
<!-- Uploaded to: SVG Repo, www.svgrepo.com, Transformed by: SVG Repo Mixer Tools -->
<svg version="1.1" id="Uploaded to svgrepo.com" xmlns="http://www.w3.org/2000/svg" xmlns:xlink="http://www.w3.org/1999/xlink" width="225px" height="225px" viewBox="0 0 32.00 32.00" xml:space="preserve" fill="#000000" transform="rotate(0)">
<g id="SVGRepo_bgCarrier" stroke-width="0"/>
<g id="SVGRepo_tracerCarrier" stroke-linecap="round" stroke-linejoin="round"/>
<g id="SVGRepo_iconCarrier"> <style type="text/css"> .linesandangles_een{fill:#111918;} </style> <path class="linesandangles_een" d="M4,4v20h14l0,6l6-6h4V4H4z M26,22h-2.828L20,25.172L20,22H6V6h20V22z M14,12h-2 c0-1.607,1.065-4,4-4s4,2.393,4,4c0,1.41-0.819,3.423-3,3.897V17h-2v-3h1c1.903,0,2-1.666,2-2c-0.008-0.464-0.174-2-2-2 C14.097,10,14,11.666,14,12z M15,18h2v2h-2V18z"/> </g>
</svg>